<svg xmlns="http://www.w3.org/2000/svg" width="28" height="28" fill="none"><path fill="#FCFCFC" fill-rule="evenodd" d="M26 14a12 12 0 1 1-24 0 12 12 0 0 1 24 0Zm-11.4 3h-.7s-1.6 0-3-1.2A16.8 16.8 0 0 1 8 11.6v-.2l.4-.1h2l.1.2.7 1.2c.7 1 1 1.3 1.3 1.2.3-.2.2-1.5.2-1.5s0-.5-.2-.7c-.1-.2-.4-.3-.5-.3 0 0 0-.2.3-.3l1.5-.1h.8c.5.2.5.5.4 1.1V13c0 .4 0 .8.2 1 .2 0 .5 0 1.3-1.3l.7-1.2.1-.2h2.1l.6.1c0 .3-.2.8-1 1.6-.7.9-1 1.2-1 1.4 0 .2.3.4.7.7l1.2 1.2c.4.6-.4.7-.4.7h-1.7l-.7-.2a4 4 0 0 1-.7-.6c-.4-.4-.7-.7-1-.6-.4.1-.4 1-.4 1v.2l-.4.2Z" clip-rule="evenodd"/><rect width="26" height="26" x="1" y="1" stroke="#FCFCFC" stroke-opacity=".3" stroke-width="2" rx="13"/></svg>